<svg id="burgermenu" xmlns="http://www.w3.org/2000/svg" width="24" height="24" viewBox="0 0 24 24">
  <path id="Path_5537" data-name="Path 5537" d="M0,0H24V24H0Z" fill="none"/>
  <path id="Path_5538" data-name="Path 5538" d="M4.056,18.667H20.944a1.056,1.056,0,0,0,0-2.111H4.056a1.056,1.056,0,0,0,0,2.111Zm0-5.278H15.9a1.056,1.056,0,1,0,0-2.111H4.056a1.056,1.056,0,0,0,0,2.111ZM3,7.056A1.059,1.059,0,0,0,4.056,8.111H20.944a1.056,1.056,0,1,0,0-2.111H4.056A1.059,1.059,0,0,0,3,7.056Z" transform="translate(-1 -1)" fill="#fff"/>
</svg>
