<svg xmlns="http://www.w3.org/2000/svg" width="32" height="32" viewBox="0 0 32 32" fill="none">
  <circle cx="16" cy="16" r="16" fill="white"/>
  <path fill-rule="evenodd" clip-rule="evenodd" d="M16 12C13.8 12 12 13.8 12 16C12 18.2 13.8 20 16 20C18.2 20 20 18.2 20 16C20 13.8 18.2 12 16 12ZM16 18.7C14.5 18.7 13.3 17.5 13.3 16C13.3 14.5 14.5 13.3 16 13.3C17.5 13.3 18.7 14.5 18.7 16C18.7 17.5 17.5 18.7 16 18.7ZM21.2 11.8C21.2 12.3 20.8 12.7 20.3 12.7C19.8 12.7 19.4 12.3 19.4 11.8C19.4 11.3 19.8 10.9 20.3 10.9C20.8 10.9 21.2 11.3 21.2 11.8ZM24 12.7C24.1 14.1 24.1 18 24.1 18C24.1 19.4 23.9 20.7 23.7 21.3C23.3 22.5 22.4 23.4 21.2 23.8C20.6 24 19.3 24.2 17.9 24.1C16.5 24.1 12.6 24.1 12.6 24.1C11.2 24.1 9.9 23.9 9.3 23.7C8.1 23.3 7.2 22.4 6.8 21.2C6.6 20.6 6.4 19.3 6.5 17.9C6.5 16.5 6.5 12.6 6.5 12.6C6.5 11.2 6.7 9.9 6.9 9.3C7.3 8.1 8.2 7.2 9.4 6.8C10 6.6 11.3 6.4 12.7 6.5C14.1 6.5 18 6.5 18 6.5C19.4 6.5 20.7 6.7 21.3 6.9C22.5 7.3 23.4 8.2 23.8 9.4C24 10 24.2 11.3 24 12.7ZM22.6 22.6C23.1 22.1 23.4 21.3 23.5 20.2C23.5 20.2 23.7 16.4 23.7 14.9C23.7 13.4 23.5 9.7 23.5 9.7C23.4 8.6 23.1 7.8 22.6 7.3C22.1 6.8 21.3 6.5 20.2 6.4C20.2 6.4 16.4 6.2 14.9 6.2C13.4 6.2 9.7 6.4 9.7 6.4C8.6 6.5 7.8 6.8 7.3 7.3C6.8 7.8 6.5 8.6 6.4 9.7C6.4 9.7 6.2 13.5 6.2 15C6.2 16.5 6.4 20.2 6.4 20.2C6.5 21.3 6.8 22.1 7.3 22.6C7.8 23.1 8.6 23.4 9.7 23.5C9.7 23.5 13.5 23.7 15 23.7C16.5 23.7 20.2 23.5 20.2 23.5C21.3 23.4 22.1 23.1 22.6 22.6Z" fill="#1C1C1C"/>
</svg> 