<svg xmlns="http://www.w3.org/2000/svg" width="32" height="32" viewBox="0 0 32 32" fill="none">
  <circle cx="16" cy="16" r="16" fill="white"/>
  <path d="M24 13.5V10.8C22.2 10.8 20.6 10.1 19.4 8.9C18.2 7.7 17.5 6.1 17.5 4.3H14.8V18.7C14.8 20.5 13.3 22 11.5 22C9.7 22 8.2 20.5 8.2 18.7C8.2 16.9 9.7 15.4 11.5 15.4C11.9 15.4 12.3 15.5 12.7 15.6V12.8C12.3 12.7 11.9 12.7 11.5 12.7C8.2 12.7 5.5 15.4 5.5 18.7C5.5 22 8.2 24.7 11.5 24.7C14.8 24.7 17.5 22 17.5 18.7V11.1C19.1 12.4 21.1 13.2 23.2 13.2C23.5 13.2 23.8 13.2 24 13.1V13.5Z" fill="#1C1C1C"/>
</svg> 