<svg xmlns="http://www.w3.org/2000/svg" width="32" height="32" viewBox="0 0 32 32" fill="none">
  <circle cx="16" cy="16" r="16" fill="white"/>
  <path d="M23.0762 11.5238C23.0762 11.7619 23.0762 12 23.0762 12.2381C23.0762 17.4286 19.1429 23.3333 12 23.3333C9.71429 23.3333 7.66667 22.619 5.85714 21.4286C6.19048 21.4286 6.52381 21.4762 6.85714 21.4762C8.7619 21.4762 10.5238 20.7619 11.9048 19.619C10.0952 19.5714 8.57143 18.381 8.04762 16.7143C8.33333 16.7619 8.61905 16.8095 8.90476 16.8095C9.28571 16.8095 9.71429 16.7143 10.0952 16.619C8.19048 16.2381 6.7619 14.5714 6.7619 12.5714V12.5238C7.33333 12.8571 7.95238 13.0476 8.61905 13.0476C7.47619 12.2857 6.7619 11 6.7619 9.52381C6.7619 8.7619 6.95238 8.04762 7.28571 7.42857C9.33333 9.95238 12.381 11.619 15.8095 11.8095C15.7619 11.4762 15.7143 11.1429 15.7143 10.8095C15.7143 8.52381 17.5238 6.66667 19.8571 6.66667C21.0952 6.66667 22.1905 7.19048 22.9524 8.04762C23.9048 7.85714 24.8095 7.47619 25.619 7C25.2857 8 24.619 8.7619 23.7143 9.28571C24.5714 9.19048 25.4286 8.90476 26.1905 8.57143C25.619 9.38095 24.9048 10.0952 24.0952 10.7143C24.0952 11 23.0762 11.5238 23.0762 11.5238Z" fill="#1C1C1C"/>
</svg> 