<svg xmlns="http://www.w3.org/2000/svg" width="32" height="32" viewBox="0 0 32 32" fill="none">
  <circle cx="16" cy="16" r="16" fill="white"/>
  <path d="M25.6667 12.4C25.6667 12.4 25.4667 11.2667 24.9333 10.7333C24.2667 10 23.5333 10 23.2 10C20.8667 9.86667 17.3333 9.86667 17.3333 9.86667H17.2C17.2 9.86667 13.6667 9.86667 11.3333 10C11 10 10.2667 10 9.6 10.7333C9.06667 11.2667 8.86667 12.4 8.86667 12.4C8.86667 12.4 8.66667 13.7333 8.66667 15.0667V16.3333C8.66667 17.6667 8.86667 19 8.86667 19C8.86667 19 9.06667 20.1333 9.6 20.6667C10.2667 21.4 11.1333 21.3333 11.5333 21.4C12.8 21.5333 17.2667 21.6 17.2667 21.6C17.2667 21.6 20.8667 21.5333 23.2 21.4C23.5333 21.3333 24.2667 21.3333 24.9333 20.6C25.4667 20.0667 25.6667 18.9333 25.6667 18.9333C25.6667 18.9333 25.8667 17.6 25.8667 16.2667V15C25.8667 13.7333 25.6667 12.4 25.6667 12.4ZM15.6 17.8V13.2L20 15.5L15.6 17.8Z" fill="#1C1C1C"/>
</svg> 